<svg width="22" height="22" viewBox="0 0 22 22" fill="none" xmlns="http://www.w3.org/2000/svg">
<path d="M18 9.75H17.3333C16.7833 9.75 16.3333 10.1719 16.3333 10.6875V12.6281C16.3333 12.9031 16.0947 13.1269 15.8013 13.1269H15.7967C15.4896 12.6676 15.0631 12.2888 14.5573 12.0262C14.0515 11.7635 13.4829 11.6255 12.9047 11.625H11.6667V9.75H13.7273C14.2417 9.74983 14.735 9.55814 15.0987 9.21708C15.4624 8.87602 15.6667 8.4135 15.6667 7.93125L14.818 1.77875C14.7845 1.56246 14.6691 1.36471 14.4928 1.2217C14.3165 1.07869 14.0911 0.999987 13.858 1H8.142C7.66 1 7.25133 1.33188 7.182 1.77875L6.33333 7.93125C6.33333 8.4135 6.53763 8.87602 6.90131 9.21708C7.26499 9.55814 7.75826 9.74983 8.27267 9.75H10.3333V11.625H9.09533C7.99467 11.625 7.02667 12.1194 6.39933 12.875H6.19867C6.05763 12.8748 5.92241 12.8222 5.82268 12.7287C5.72295 12.6352 5.66684 12.5085 5.66667 12.3762V10.5619C5.66667 9.97625 5.156 9.49813 4.53267 9.49813H4.134C3.51067 9.49813 3 9.97625 3 10.5619C3 11.1462 3.51067 11.625 4.134 11.625H4.33333V12.3762C4.33444 12.7703 4.47734 13.1524 4.73892 13.4608C5.0005 13.7692 5.36543 13.9858 5.77467 14.0756C5.70572 14.3252 5.66945 14.5816 5.66667 14.8394C5.66667 15.135 5.92267 15.375 6.238 15.375H10.2487L7.34733 18.5481C7.23434 18.5177 7.11754 18.5015 7 18.5C6.73629 18.5 6.47851 18.5733 6.25924 18.7107C6.03997 18.848 5.86908 19.0432 5.76816 19.2716C5.66724 19.5001 5.64084 19.7514 5.69229 19.9939C5.74373 20.2363 5.87072 20.4591 6.05719 20.6339C6.24366 20.8087 6.48124 20.9277 6.73988 20.976C6.99852 21.0242 7.26661 20.9995 7.51024 20.9049C7.75388 20.8102 7.96212 20.65 8.10863 20.4445C8.25513 20.2389 8.33333 19.9972 8.33333 19.75C8.33333 19.5688 8.29067 19.3975 8.216 19.2425L10.3333 16.9263V18.6731C9.936 18.89 9.66667 19.2887 9.66667 19.75C9.66667 20.0815 9.80714 20.3995 10.0572 20.6339C10.3072 20.8683 10.6464 21 11 21C11.3536 21 11.6928 20.8683 11.9428 20.6339C12.1929 20.3995 12.3333 20.0815 12.3333 19.75C12.3333 19.2887 12.064 18.89 11.6667 18.6731V16.9263L13.784 19.2425C13.7068 19.4019 13.6668 19.5749 13.6667 19.75C13.6667 19.9972 13.7449 20.2389 13.8914 20.4445C14.0379 20.65 14.2461 20.8102 14.4898 20.9049C14.7334 20.9995 15.0015 21.0242 15.2601 20.976C15.5188 20.9277 15.7563 20.8087 15.9428 20.6339C16.1293 20.4591 16.2563 20.2363 16.3077 19.9939C16.3592 19.7514 16.3328 19.5001 16.2318 19.2716C16.1309 19.0432 15.96 18.848 15.7408 18.7107C15.5215 18.5733 15.2637 18.5 15 18.5C14.8787 18.5 14.764 18.52 14.6527 18.5481L11.7513 15.375H15.762C15.9135 15.375 16.0588 15.3186 16.166 15.2181C16.2731 15.1177 16.3333 14.9814 16.3333 14.8394C16.3333 14.6587 16.3073 14.4844 16.2767 14.3125C16.674 14.2146 17.0256 13.9963 17.277 13.6917C17.5283 13.3872 17.6653 13.0132 17.6667 12.6281V11.625H18C18.55 11.625 19 11.2031 19 10.6875C19 10.1719 18.55 9.75 18 9.75Z" fill="#68B51C"/>
</svg>
