<svg width="22" height="22" viewBox="0 0 22 22" fill="none" xmlns="http://www.w3.org/2000/svg">
<path fill-rule="evenodd" clip-rule="evenodd" d="M1.78357 7.54601C1.7184 7.54702 1.65407 7.53111 1.59688 7.49985C1.53968 7.46859 1.49156 7.42304 1.45721 7.36764C1.42287 7.31224 1.40346 7.24889 1.4009 7.18376C1.39833 7.11862 1.41269 7.05394 1.44257 6.99601C2.1346 5.68013 3.02978 4.48161 4.09514 3.44458C4.23186 3.31729 4.455 3.3723 4.587 3.5043L7.95772 6.87501C8.01271 6.92986 8.0502 6.99978 8.06547 7.07593C8.08074 7.15208 8.07309 7.23105 8.04349 7.30286C8.01389 7.37467 7.96367 7.43609 7.89918 7.47937C7.83469 7.52265 7.75881 7.54584 7.68114 7.54601H1.78357ZM20.5574 6.99601C20.5874 7.05406 20.6017 7.11889 20.5991 7.18416C20.5965 7.24942 20.5769 7.31289 20.5424 7.36833C20.5079 7.42378 20.4595 7.4693 20.4021 7.50045C20.3447 7.53159 20.2802 7.54729 20.2149 7.54601H14.3204C14.2428 7.54584 14.1669 7.52265 14.1024 7.47937C14.0379 7.43609 13.9877 7.37467 13.9581 7.30286C13.9285 7.23105 13.9208 7.15208 13.9361 7.07593C13.9514 6.99978 13.9889 6.92986 14.0439 6.87501L17.4114 3.5043C17.5434 3.3723 17.7666 3.31572 17.9033 3.44615C18.9687 4.48318 19.8638 5.68171 20.5559 6.99758M11.2766 6.86244C11.2401 6.89902 11.1967 6.92805 11.149 6.94785C11.1013 6.96766 11.0501 6.97785 10.9984 6.97785C10.9468 6.97785 10.8956 6.96766 10.8479 6.94785C10.8001 6.92805 10.7568 6.89902 10.7203 6.86244L7.34172 3.48072C7.28663 3.42578 7.2491 3.35572 7.23389 3.27942C7.21867 3.20312 7.22645 3.12402 7.25624 3.05215C7.28604 2.98027 7.3365 2.91887 7.40123 2.87571C7.46597 2.83255 7.54206 2.80958 7.61986 2.80972H14.3786C14.4564 2.80958 14.5325 2.83255 14.5972 2.87571C14.6619 2.91887 14.7124 2.98027 14.7422 3.05215C14.772 3.12402 14.7798 3.20312 14.7645 3.27942C14.7493 3.35572 14.7118 3.42578 14.6567 3.48072L11.2766 6.86244ZM2.05229 9.5103C1.9828 9.50931 1.91436 9.52723 1.85427 9.56214C1.79419 9.59704 1.74471 9.64762 1.71114 9.70846C1.67757 9.7693 1.66117 9.83813 1.66369 9.90757C1.6662 9.97701 1.68755 10.0445 1.72543 10.1027C3.388 12.6422 6.59372 16.7263 9.95657 19.8487C9.98014 19.8707 10.0179 19.8534 10.0179 19.8204V9.90315C10.0179 9.79896 9.97647 9.69904 9.90279 9.62536C9.82912 9.55169 9.72919 9.5103 9.625 9.5103H2.05229ZM12.375 9.5103C12.2708 9.5103 12.1709 9.55169 12.0972 9.62536C12.0235 9.69904 11.9821 9.79896 11.9821 9.90315V19.8204C11.9821 19.8534 12.0199 19.8707 12.045 19.8487C15.4079 16.7263 18.6136 12.6422 20.2746 10.1027C20.3125 10.0445 20.3338 9.97701 20.3363 9.90757C20.3388 9.83813 20.3224 9.7693 20.2889 9.70846C20.2553 9.64762 20.2058 9.59704 20.1457 9.56214C20.0856 9.52723 20.0172 9.50931 19.9477 9.5103H12.375Z" fill="white"/>
</svg>
