<svg width="22" height="22" viewBox="0 0 22 22" fill="none" xmlns="http://www.w3.org/2000/svg">
<path d="M13.4444 11.3056V3.66668C13.4444 2.99064 12.8983 2.44446 12.2222 2.44446H9.77778C9.10174 2.44446 8.55556 2.99064 8.55556 3.66668V11.3056C8.55556 11.8136 8.14688 12.2222 7.63889 12.2222C7.1309 12.2222 6.72222 11.8136 6.72222 11.3056V4.20522C3.4375 5.41599 1.22222 8.54793 1.22222 12.2222V14.6667H20.7778V12.2222C20.7396 8.58612 18.5472 5.43508 15.2778 4.20904V11.3056C15.2778 11.8136 14.8691 12.2222 14.3611 12.2222C13.8531 12.2222 13.4444 11.8136 13.4444 11.3056ZM1.52778 16.5C0.683681 16.5 0 17.1837 0 18.0278C0 18.8719 0.683681 19.5556 1.52778 19.5556H20.4722C21.3163 19.5556 22 18.8719 22 18.0278C22 17.1837 21.3163 16.5 20.4722 16.5H1.52778Z" fill="white"/>
</svg>
