<svg width="22" height="22" viewBox="0 0 22 22" fill="none" xmlns="http://www.w3.org/2000/svg">
<path d="M10.5084 0.978707L1.34232 7.88761C1.20019 7.99503 1.09451 8.1463 1.0404 8.31977C0.986291 8.49324 0.986541 8.68001 1.04111 8.85333C1.09568 9.02664 1.20177 9.17761 1.34419 9.28462C1.48661 9.39162 1.65805 9.44917 1.83396 9.44902H2.66723V18.9488C2.66723 19.4272 3.03888 19.8124 3.50051 19.8124H12.6666V15.4943C12.6666 15.0159 13.0382 14.6307 13.4998 14.6307H15.1664C15.628 14.6307 15.9997 15.0159 15.9997 15.4943V19.8124H18.4995C18.9611 19.8124 19.3328 19.4272 19.3328 18.9488V9.44902H20.166C20.3419 9.44917 20.5134 9.39162 20.6558 9.28462C20.7982 9.17761 20.9043 9.02664 20.9589 8.85333C21.0135 8.68001 21.0137 8.49324 20.9596 8.31977C20.9055 8.1463 20.7998 7.99503 20.6577 7.88761L11.4916 0.978707C11.3489 0.870627 11.1768 0.812378 11 0.812378C10.8232 0.812378 10.6511 0.870627 10.5084 0.978707ZM6.83362 11.1762H8.50017C8.96181 11.1762 9.33345 11.5614 9.33345 12.0399V15.4943C9.33345 15.9728 8.96181 16.3579 8.50017 16.3579H6.83362C6.61262 16.3579 6.40067 16.2669 6.2444 16.105C6.08813 15.943 6.00034 15.7234 6.00034 15.4943V12.0399C6.00034 11.5614 6.37198 11.1762 6.83362 11.1762Z" fill="white"/>
</svg>
