<svg width="22" height="22" viewBox="0 0 22 22" fill="none" xmlns="http://www.w3.org/2000/svg">
<path d="M11.5625 11.5625H20V18.1831C20 18.6826 19.8219 19.1101 19.4656 19.4656C19.1101 19.8219 18.6826 20 18.1831 20H11.5625V11.5625ZM11.5625 10.4375V2H18.1831C18.6826 2 19.1101 2.17812 19.4656 2.53437C19.8219 2.88987 20 3.31737 20 3.81687V10.4375H11.5625ZM10.4375 10.4375H2V3.81687C2 3.31737 2.17812 2.88987 2.53437 2.53437C2.88987 2.17812 3.31737 2 3.81687 2H10.4375V10.4375ZM10.4375 11.5625V20H3.81687C3.31737 20 2.88987 19.8219 2.53437 19.4656C2.17812 19.1101 2 18.6826 2 18.1831V11.5625H10.4375Z" fill="#68B51C"/>
</svg>
