<svg width="25" height="25" viewBox="0 0 25 25" fill="none" xmlns="http://www.w3.org/2000/svg">
<path d="M3.75 25C3.0625 25 2.47375 24.755 1.98375 24.265C1.49375 23.775 1.24917 23.1867 1.25 22.5V8.375C0.895838 8.14584 0.598754 7.85417 0.358754 7.5C0.118754 7.14584 -0.000829008 6.72917 4.32526e-06 6.25V2.5C4.32526e-06 1.8125 0.245004 1.22375 0.735004 0.733752C1.225 0.243752 1.81334 -0.000831211 2.5 2.12224e-06H22.5C23.1875 2.12224e-06 23.7763 0.245002 24.2663 0.735002C24.7563 1.225 25.0008 1.81334 25 2.5V6.25C25 6.72917 24.88 7.14584 24.64 7.5C24.4 7.85417 24.1033 8.14584 23.75 8.375V22.5C23.75 23.1875 23.505 23.7763 23.015 24.2663C22.525 24.7563 21.9367 25.0008 21.25 25H3.75ZM22.5 6.25V2.5H2.5V6.25H22.5ZM10 15H15C15.3542 15 15.6513 14.88 15.8913 14.64C16.1313 14.4 16.2508 14.1033 16.25 13.75C16.25 13.3958 16.13 13.0988 15.89 12.8588C15.65 12.6188 15.3533 12.4992 15 12.5H10C9.64584 12.5 9.34875 12.62 9.10875 12.86C8.86875 13.1 8.74917 13.3967 8.75 13.75C8.75 14.1042 8.87 14.4013 9.11 14.6413C9.35 14.8813 9.64667 15.0008 10 15Z" fill="white"/>
</svg>
