<svg width="18" height="18" viewBox="0 0 18 18" fill="none" xmlns="http://www.w3.org/2000/svg">
<path d="M17.25 0.75L9.91667 8.54167ZM6.65883 8.16125C4.3855 9.03392 2.56775 8.8845 0.75 8.164C1.20833 14.0701 3.962 16.3407 7.63325 17.25C7.63325 17.25 10.3988 15.2938 10.7976 10.6564C10.8407 10.1541 10.8618 9.90383 10.7582 9.62058C10.6537 9.33733 10.4483 9.13475 10.0386 8.72867C9.36392 8.06133 9.0275 7.72767 8.62692 7.64333C8.22633 7.56083 7.70383 7.76067 6.65883 8.16125Z" fill="white"/>
<path d="M17.25 0.75L9.91667 8.54167M6.65883 8.16125C4.3855 9.03392 2.56775 8.8845 0.75 8.164C1.20833 14.0701 3.962 16.3407 7.63325 17.25C7.63325 17.25 10.3988 15.2938 10.7976 10.6564C10.8407 10.1541 10.8618 9.90383 10.7582 9.62058C10.6537 9.33733 10.4483 9.13475 10.0386 8.72867C9.36392 8.06133 9.0275 7.72767 8.62692 7.64333C8.22633 7.56083 7.70383 7.76067 6.65883 8.16125Z" stroke="white" stroke-width="1.5" stroke-linecap="round" stroke-linejoin="round"/>
<path d="M2.125 13.0755C2.125 13.0755 4.41667 13.5191 6.70833 11.75ZM5.79167 4.64579C5.79167 4.94969 5.67095 5.24113 5.45606 5.45602C5.24117 5.6709 4.94973 5.79163 4.64583 5.79163C4.34194 5.79163 4.05049 5.6709 3.83561 5.45602C3.62072 5.24113 3.5 4.94969 3.5 4.64579C3.5 4.3419 3.62072 4.05045 3.83561 3.83557C4.05049 3.62068 4.34194 3.49996 4.64583 3.49996C4.94973 3.49996 5.24117 3.62068 5.45606 3.83557C5.67095 4.05045 5.79167 4.3419 5.79167 4.64579ZM8.08333 1.66663V1.75829Z" fill="#D9D9D9"/>
<path d="M2.125 13.0755C2.125 13.0755 4.41667 13.5191 6.70833 11.75M8.08333 1.66663V1.75829M5.79167 4.64579C5.79167 4.94969 5.67095 5.24113 5.45606 5.45602C5.24117 5.6709 4.94973 5.79163 4.64583 5.79163C4.34194 5.79163 4.05049 5.6709 3.83561 5.45602C3.62072 5.24113 3.5 4.94969 3.5 4.64579C3.5 4.3419 3.62072 4.05045 3.83561 3.83557C4.05049 3.62068 4.34194 3.49996 4.64583 3.49996C4.94973 3.49996 5.24117 3.62068 5.45606 3.83557C5.67095 4.05045 5.79167 4.3419 5.79167 4.64579Z" stroke="white" stroke-width="1.5" stroke-linecap="round" stroke-linejoin="round"/>
</svg>
