<svg width="14" height="20" viewBox="0 0 14 20" fill="none" xmlns="http://www.w3.org/2000/svg">
<path d="M5.2956e-07 0.688353V11.0009H13.75V4.81335C13.7502 4.66889 13.7048 4.52803 13.6204 4.41079C13.536 4.29355 13.4168 4.20588 13.2797 4.16023L0.90475 0.0352283C0.801342 0.000786169 0.691226 -0.00857608 0.583486 0.0079139C0.475747 0.0244039 0.373472 0.0662735 0.285099 0.130069C0.196726 0.193864 0.124787 0.277757 0.0752165 0.374826C0.0256462 0.471895 -0.000134739 0.57936 5.2956e-07 0.688353ZM3.4375 5.50085H4.8125C5.19338 5.50085 5.5 5.80748 5.5 6.18835V8.93835C5.5 9.31923 5.19338 9.62585 4.8125 9.62585H3.4375C3.25516 9.62585 3.0803 9.55342 2.95136 9.42449C2.82243 9.29556 2.75 9.12069 2.75 8.93835V6.18835C2.75 5.80748 3.05663 5.50085 3.4375 5.50085ZM8.9375 6.87585H10.3125C10.6934 6.87585 11 7.18248 11 7.56335V8.93835C11 9.31923 10.6934 9.62585 10.3125 9.62585H8.9375C8.75516 9.62585 8.5803 9.55342 8.45136 9.42449C8.32243 9.29556 8.25 9.12069 8.25 8.93835V7.56335C8.25 7.18248 8.55663 6.87585 8.9375 6.87585ZM5.2956e-07 12.3759V18.5634C5.2956e-07 18.7457 0.0724335 18.9206 0.201365 19.0495C0.330296 19.1784 0.505164 19.2509 0.6875 19.2509H8.25V15.8134C8.25 15.4325 8.55663 15.1259 8.9375 15.1259H10.3125C10.6934 15.1259 11 15.4325 11 15.8134V19.2509H13.0625C13.2448 19.2509 13.4197 19.1784 13.5486 19.0495C13.6776 18.9206 13.75 18.7457 13.75 18.5634V12.3759H5.2956e-07ZM3.4375 13.7509H4.8125C5.19338 13.7509 5.5 14.0575 5.5 14.4384V17.1884C5.5 17.5692 5.19338 17.8759 4.8125 17.8759H3.4375C3.25516 17.8759 3.0803 17.8034 2.95136 17.6745C2.82243 17.5456 2.75 17.3707 2.75 17.1884V14.4384C2.75 14.0575 3.05663 13.7509 3.4375 13.7509Z" fill="white"/>
</svg>
