<svg width="19" height="19" viewBox="0 0 19 19" fill="none" xmlns="http://www.w3.org/2000/svg">
<path d="M15.5833 1.83333H13.75V0.916667C13.75 0.673552 13.6534 0.440394 13.4815 0.268485C13.3096 0.0965771 13.0764 0 12.8333 0C12.5902 0 12.3571 0.0965771 12.1852 0.268485C12.0132 0.440394 11.9167 0.673552 11.9167 0.916667V1.83333H6.41667V0.916667C6.41667 0.673552 6.32009 0.440394 6.14818 0.268485C5.97627 0.0965771 5.74311 0 5.5 0C5.25688 0 5.02373 0.0965771 4.85182 0.268485C4.67991 0.440394 4.58333 0.673552 4.58333 0.916667V1.83333H2.75C2.02065 1.83333 1.32118 2.12306 0.805456 2.63879C0.289731 3.15451 0 3.85399 0 4.58333V15.5833C0 16.3127 0.289731 17.0122 0.805456 17.5279C1.32118 18.0436 2.02065 18.3333 2.75 18.3333H15.5833C16.3127 18.3333 17.0122 18.0436 17.5279 17.5279C18.0436 17.0122 18.3333 16.3127 18.3333 15.5833V4.58333C18.3333 3.85399 18.0436 3.15451 17.5279 2.63879C17.0122 2.12306 16.3127 1.83333 15.5833 1.83333ZM16.5 15.5833C16.5 15.8264 16.4034 16.0596 16.2315 16.2315C16.0596 16.4034 15.8264 16.5 15.5833 16.5H2.75C2.50688 16.5 2.27373 16.4034 2.10182 16.2315C1.92991 16.0596 1.83333 15.8264 1.83333 15.5833V9.16667H16.5V15.5833ZM16.5 7.33333H1.83333V4.58333C1.83333 4.34022 1.92991 4.10706 2.10182 3.93515C2.27373 3.76324 2.50688 3.66667 2.75 3.66667H4.58333V4.58333C4.58333 4.82645 4.67991 5.05961 4.85182 5.23151C5.02373 5.40342 5.25688 5.5 5.5 5.5C5.74311 5.5 5.97627 5.40342 6.14818 5.23151C6.32009 5.05961 6.41667 4.82645 6.41667 4.58333V3.66667H11.9167V4.58333C11.9167 4.82645 12.0132 5.05961 12.1852 5.23151C12.3571 5.40342 12.5902 5.5 12.8333 5.5C13.0764 5.5 13.3096 5.40342 13.4815 5.23151C13.6534 5.05961 13.75 4.82645 13.75 4.58333V3.66667H15.5833C15.8264 3.66667 16.0596 3.76324 16.2315 3.93515C16.4034 4.10706 16.5 4.34022 16.5 4.58333V7.33333Z" fill="white"/>
</svg>
