<svg width="20" height="18" viewBox="0 0 20 18" fill="none" xmlns="http://www.w3.org/2000/svg">
<path d="M14.9992 7.00027L12.9992 1.00027M4.99924 7.00027L6.99924 1.00027M8.49924 17.0003H5.24324C4.52664 17.0002 3.83372 16.7437 3.28987 16.2771C2.74602 15.8104 2.38716 15.1645 2.27824 14.4563L1.02324 7.30427C0.979407 7.01925 0.997728 6.72813 1.07694 6.45086C1.15616 6.17358 1.2944 5.91672 1.48218 5.69787C1.66997 5.47903 1.90286 5.30338 2.16488 5.18297C2.42691 5.06256 2.71187 5.00024 3.00024 5.00027H16.9992C17.2876 5.00024 17.5726 5.06256 17.8346 5.18297C18.0966 5.30338 18.3295 5.47903 18.5173 5.69787C18.7051 5.91672 18.8433 6.17358 18.9225 6.45086C19.0017 6.72813 19.0201 7.01925 18.9762 7.30427L18.8432 8.06127" stroke="#333333" stroke-width="2" stroke-linecap="round" stroke-linejoin="round"/>
</svg>
