<svg width="9" height="14" viewBox="0 0 9 14" fill="none" xmlns="http://www.w3.org/2000/svg">
<path opacity="0.9" d="M3.06185 1.3125C3.06185 0.964403 3.20013 0.630564 3.44627 0.384422C3.69241 0.138281 4.02625 0 4.37435 0C4.72245 0 5.05628 0.138281 5.30243 0.384422C5.54857 0.630564 5.68685 0.964403 5.68685 1.3125C5.68685 1.6606 5.54857 1.99444 5.30243 2.24058C5.05628 2.48672 4.72245 2.625 4.37435 2.625C4.02625 2.625 3.69241 2.48672 3.44627 2.24058C3.20013 1.99444 3.06185 1.6606 3.06185 1.3125ZM4.1556 9.625V13.125C4.1556 13.609 3.76458 14 3.2806 14C2.79661 14 2.4056 13.609 2.4056 13.125V7.02461L1.62357 8.32617C1.37474 8.73906 0.836067 8.87305 0.423177 8.62422C0.0102861 8.37539 -0.123698 7.83672 0.12513 7.42383L1.71927 4.77148C2.19505 3.98125 3.04818 3.49727 3.96966 3.49727H4.78177C5.70325 3.49727 6.55638 3.98125 7.03216 4.77148L8.6263 7.42383C8.87513 7.83672 8.74115 8.37539 8.32825 8.62422C7.91536 8.87305 7.37669 8.73906 7.12786 8.32617L6.3431 7.02461V13.125C6.3431 13.609 5.95208 14 5.4681 14C4.98411 14 4.5931 13.609 4.5931 13.125V9.625H4.1556Z" fill="#666666"/>
</svg>
