<svg width="22" height="17" viewBox="0 0 22 17" fill="none" xmlns="http://www.w3.org/2000/svg">
<path d="M18.3605 8.25086V8.3643L20.7565 5.96836C21.5093 5.21555 21.5093 3.99867 20.7565 3.24586L18.0718 0.564609C17.319 -0.188203 16.1021 -0.188203 15.3493 0.564609L13.9709 1.94305C13.878 1.93273 13.7818 1.92586 13.6855 1.92586H9.83555C8.56024 1.92586 7.5118 2.88836 7.3743 4.12586H7.36055V8.25086C7.36055 9.01055 7.97586 9.62586 8.73555 9.62586C9.49523 9.62586 10.1105 9.01055 10.1105 8.25086V5.22586H15.6105C17.1299 5.22586 18.3605 6.45648 18.3605 7.97586V8.25086ZM11.2105 6.32586V8.25086C11.2105 9.61898 10.1037 10.7259 8.73555 10.7259C7.36742 10.7259 6.26055 9.61898 6.26055 8.25086V4.17398C5.02648 4.38711 3.99867 5.2843 3.64805 6.51836L3.08086 8.49836L0.564609 11.0146C-0.188203 11.7674 -0.188203 12.9843 0.564609 13.7371L3.2493 16.4218C4.00211 17.1746 5.21898 17.1746 5.9718 16.4218L7.26773 15.1259C7.29867 15.1259 7.32961 15.1293 7.36055 15.1293H12.8605C13.7715 15.1293 14.5105 14.3902 14.5105 13.4793C14.5105 13.2868 14.4762 13.1012 14.4177 12.9293H14.5105C15.4215 12.9293 16.1605 12.1902 16.1605 11.2793C16.1605 10.8393 15.9887 10.4405 15.7068 10.1449C16.5902 9.97305 17.2571 9.19617 17.2605 8.26117V8.24742C17.2571 7.18867 16.3977 6.3293 15.3355 6.3293H11.2105V6.32586Z" fill="white"/>
</svg>
