<svg width="100" height="27" viewBox="0 0 100 27" fill="none" xmlns="http://www.w3.org/2000/svg">
<g clip-path="url(#clip0_1185_231)">
<path d="M0.414795 0.574609H9.7273C10.5739 0.574609 13.1137 0.299609 14.2424 4.14961C15.089 6.62461 16.2178 10.4746 17.911 16.2496H18.4754C20.1686 10.1996 21.5796 6.07461 22.144 4.14961C23.2728 0.299609 26.0947 0.574609 27.2235 0.574609H35.9716V26.9746H26.9413V11.2996H26.3769L21.5796 26.9746H14.8068L10.0095 11.2996H9.1629V26.9746H0.414795M39.6402 0.574609H48.6705V16.2496H49.5171L55.4432 3.32461C56.572 0.849609 59.1118 0.574609 59.1118 0.574609H67.5777V26.9746H58.5474V11.2996H57.983L52.0568 24.2246C50.9281 26.6996 48.1061 26.9746 48.1061 26.9746H39.6402M79.7122 18.9996V26.9746H71.2462V13.2246H98.9016C97.7728 16.5246 93.822 18.9996 89.3068 18.9996" fill="#0F754E"/>
<path d="M99.4659 11.5752C100.595 6.6252 97.2083 0.575195 89.8712 0.575195H70.6818C71.2462 6.3502 76.3258 11.5752 81.6875 11.5752" fill="url(#paint0_linear_1185_231)"/>
</g>
<defs>
<linearGradient id="paint0_linear_1185_231" x1="96.0796" y1="-2.9998" x2="73.5038" y2="-2.9998" gradientUnits="userSpaceOnUse">
<stop stop-color="#1F5CD7"/>
<stop offset="1" stop-color="#02AEFF"/>
</linearGradient>
<clipPath id="clip0_1185_231">
<rect width="100" height="27" fill="white"/>
</clipPath>
</defs>
</svg>
