<svg width="115" height="19" viewBox="0 0 115 19" fill="none" xmlns="http://www.w3.org/2000/svg">
<g clip-path="url(#clip0_1185_258)">
<path d="M0 18.5152H2.6614V2.89349H12.3982V18.5274H15.0109V0.47168H0V18.5152Z" fill="#FF0001"/>
<path d="M50.3069 1.7422C50.1383 1.36439 49.8644 1.04359 49.5181 0.818498C49.1719 0.593404 48.7681 0.473633 48.3555 0.473633C47.9429 0.473633 47.5391 0.593404 47.1929 0.818498C46.8466 1.04359 46.5726 1.36439 46.4041 1.7422L40.0508 16.0695H37.8316V18.532H58.8956V16.0695H56.6764L50.3069 1.7422ZM42.9353 16.0695L48.3636 3.56568L53.7878 16.0695H42.9353Z" fill="#FF0001"/>
<path d="M87.7247 0.471717C87.3135 0.471911 86.9114 0.59361 86.5687 0.821625C86.226 1.04964 85.9578 1.37387 85.7976 1.75385L78.8074 18.3646L78.7384 18.5315H81.627L87.7125 3.71979L93.798 18.4582L93.8264 18.5315H96.7191L89.6599 1.75385C89.5 1.37195 89.2308 1.04625 88.8863 0.817999C88.5418 0.589751 88.1375 0.469234 87.7247 0.471717Z" fill="#FF0001"/>
<path d="M112.395 0.47168L101.981 14.6525V0.47168H99.3602V18.5314H101.92L112.379 4.28959V18.5314H115V0.47168H112.395Z" fill="#FF0001"/>
<path d="M74.9532 2.30377C73.2324 0.817319 71.0371 -0.000158806 68.7663 4.44712e-08C66.8931 -0.000181753 65.062 0.55703 63.5045 1.60115C61.947 2.64526 60.7332 4.12937 60.0166 5.86571C59.3 7.60206 59.1128 9.51263 59.4787 11.3557C59.8447 13.1988 60.7472 14.8916 62.0722 16.22C63.1726 17.3199 64.5258 18.1311 66.0125 18.5823C67.4992 19.0334 69.0737 19.1105 70.5971 18.8069C72.1206 18.5032 73.5461 17.828 74.748 16.841C75.9499 15.8539 76.8912 14.5853 77.4889 13.147L77.5578 12.9841H74.7179L74.6814 13.0411C74.0727 14.0686 73.2081 14.9196 72.1725 15.5105C71.1368 16.1013 69.9658 16.4118 68.7744 16.4113C67.1202 16.4094 65.5218 15.8111 64.2707 14.7254C63.0195 13.6398 62.199 12.1392 61.9586 10.4972H78.1867V10.3914C78.2151 10.1024 78.2313 9.79713 78.2313 9.5C78.2306 9.03401 78.1954 8.56871 78.1258 8.10797C77.7958 5.85432 76.6699 3.79456 74.9532 2.30377ZM64.405 4.16388C65.3156 3.41871 66.4009 2.91932 67.5579 2.7131C68.7149 2.50689 69.9053 2.60069 71.016 2.98559C72.1267 3.3705 73.121 4.03376 73.9045 4.91243C74.688 5.79109 75.2347 6.85604 75.4928 8.00621H62.0398C62.3755 6.4972 63.2054 5.14448 64.3969 4.16388H64.405Z" fill="#FF0001"/>
<path d="M27.9934 0C26.1206 0 24.2898 0.557165 22.7326 1.60104C21.1754 2.64491 19.9618 4.12861 19.2451 5.86451C18.5284 7.6004 18.3409 9.51054 18.7062 11.3534C19.0716 13.1962 19.9734 14.8889 21.2977 16.2175C22.622 17.5461 24.3092 18.4509 26.146 18.8175C27.9829 19.184 29.8868 18.9959 31.617 18.2769C33.3473 17.5578 34.8261 16.3402 35.8666 14.7779C36.9071 13.2156 37.4624 11.3789 37.4624 9.5C37.4592 6.98143 36.4605 4.56695 34.6854 2.78605C32.9103 1.00516 30.5037 0.003231 27.9934 0ZM34.8903 9.5C34.8903 10.8685 34.4858 12.2063 33.7279 13.3442C32.9701 14.4821 31.8929 15.369 30.6327 15.8927C29.3724 16.4165 27.9857 16.5535 26.6478 16.2865C25.31 16.0195 24.0811 15.3605 23.1165 14.3928C22.1519 13.4251 21.4951 12.1922 21.229 10.8499C20.9628 9.50768 21.0994 8.1164 21.6214 6.85204C22.1434 5.58768 23.0274 4.507 24.1616 3.74669C25.2958 2.98637 26.6293 2.58055 27.9934 2.58055C29.8225 2.58055 31.5768 3.30956 32.8702 4.60721C34.1636 5.90486 34.8903 7.66485 34.8903 9.5Z" fill="#FF0001"/>
<path d="M37.3651 8.14064C37.0676 6.11065 36.1253 4.23112 34.6781 2.78138C33.2308 1.33163 31.356 0.389057 29.3322 0.0937282C29.1506 0.0700227 28.9661 0.0857384 28.7911 0.139811C28.6161 0.193884 28.4547 0.285051 28.3179 0.407139C28.1317 0.569681 27.9956 0.782276 27.9259 1.01985C27.8561 1.25742 27.8555 1.51005 27.9242 1.74794C27.9928 1.98583 28.1279 2.19906 28.3134 2.36247C28.4989 2.52589 28.7271 2.63266 28.9711 2.67021C30.4426 2.88358 31.806 3.5683 32.858 4.62231C33.91 5.67632 34.5944 7.04318 34.8091 8.51918C34.8472 8.76365 34.9541 8.99214 35.1172 9.17771C35.2803 9.36329 35.4929 9.49824 35.7299 9.56667C35.9669 9.6351 36.2185 9.63416 36.455 9.56395C36.6915 9.49375 36.9031 9.35722 37.0648 9.17042C37.1865 9.03101 37.2764 8.86664 37.3283 8.68879C37.3801 8.51093 37.3927 8.32387 37.3651 8.14064Z" fill="#333333"/>
</g>
<defs>
<clipPath id="clip0_1185_258">
<rect width="115" height="19" fill="white"/>
</clipPath>
</defs>
</svg>
