<svg width="58" height="10" viewBox="0 0 58 10" fill="none" xmlns="http://www.w3.org/2000/svg">
<g clip-path="url(#clip0_837_2391)">
<path d="M0.5 9.27034H1.81913V1.8706H6.64521V9.27612H7.9402V0.723427H0.5V9.27034Z" fill="white"/>
<path d="M25.4348 1.32519C25.3512 1.14623 25.2154 0.994272 25.0438 0.887648C24.8722 0.781025 24.672 0.724291 24.4675 0.724291C24.263 0.724291 24.0629 0.781025 23.8913 0.887648C23.7196 0.994272 23.5839 1.14623 23.5003 1.32519L20.3513 8.11182H19.2513V9.27828H29.6918V8.11182H28.5918L25.4348 1.32519ZM21.781 8.11182L24.4715 2.18895L27.1601 8.11182H21.781Z" fill="white"/>
<path d="M43.9809 0.723445C43.7771 0.723536 43.5778 0.781183 43.4079 0.889191C43.2381 0.997198 43.1052 1.15078 43.0258 1.33077L39.561 9.19902L39.5269 9.27807H40.9586L43.9749 2.26201L46.9912 9.24337L47.0053 9.27807H48.439L44.9401 1.33077C44.8609 1.14987 44.7274 0.99559 44.5567 0.887473C44.3859 0.779355 44.1855 0.722268 43.9809 0.723445Z" fill="white"/>
<path d="M56.209 0.723427L51.0471 7.44065V0.723427H49.7481V9.27805H51.017L56.201 2.53191V9.27805H57.5V0.723427H56.209Z" fill="white"/>
<path d="M37.6508 1.59126C36.7979 0.887151 35.7097 0.499925 34.5842 0.5C33.6558 0.499914 32.7481 0.763856 31.9762 1.25844C31.2042 1.75302 30.6026 2.45602 30.2474 3.2785C29.8922 4.10098 29.7994 5.00598 29.9808 5.87903C30.1622 6.75207 30.6095 7.55393 31.2663 8.18316C31.8116 8.70414 32.4824 9.08843 33.2193 9.30213C33.9561 9.51582 34.7366 9.55236 35.4917 9.40852C36.2468 9.26467 36.9533 8.94486 37.549 8.47731C38.1448 8.00975 38.6113 7.40881 38.9076 6.72751L38.9417 6.65038H37.5341L37.516 6.67738C37.2143 7.16408 36.7858 7.56717 36.2725 7.84706C35.7591 8.12694 35.1787 8.274 34.5882 8.27378C33.7683 8.27287 32.9761 7.98945 32.3559 7.47521C31.7358 6.96096 31.3291 6.25014 31.21 5.47236H39.2534V5.42224C39.2675 5.28535 39.2755 5.14075 39.2755 5C39.2752 4.77927 39.2577 4.55886 39.2233 4.34062C39.0597 3.2731 38.5016 2.29742 37.6508 1.59126ZM32.4225 2.47236C32.8739 2.11939 33.4118 1.88284 33.9853 1.78515C34.5587 1.68747 35.1487 1.7319 35.6993 1.91423C36.2498 2.09655 36.7426 2.41073 37.131 2.82694C37.5193 3.24315 37.7903 3.7476 37.9182 4.29242H31.2502C31.4166 3.57762 31.8279 2.93686 32.4185 2.47236H32.4225Z" fill="white"/>
<path d="M14.375 0.5C13.4467 0.5 12.5393 0.76392 11.7675 1.25839C10.9957 1.75285 10.3941 2.45566 10.0389 3.27792C9.68367 4.10019 9.59073 5.00499 9.77182 5.87791C9.95292 6.75082 10.3999 7.55264 11.0563 8.18198C11.7127 8.81132 12.549 9.2399 13.4594 9.41353C14.3698 9.58717 15.3135 9.49805 16.1711 9.15746C17.0287 8.81686 17.7617 8.24009 18.2774 7.50007C18.7931 6.76005 19.0684 5.89002 19.0684 5C19.0668 3.807 18.5718 2.66329 17.6919 1.81971C16.8121 0.976128 15.6193 0.50153 14.375 0.5ZM17.7935 5C17.7935 5.64826 17.593 6.28195 17.2174 6.82096C16.8417 7.35996 16.3078 7.78006 15.6832 8.02814C15.0585 8.27622 14.3712 8.34113 13.7081 8.21466C13.045 8.08819 12.4359 7.77602 11.9578 7.31764C11.4797 6.85925 11.1541 6.27523 11.0222 5.63944C10.8903 5.00364 10.958 4.34461 11.2167 3.7457C11.4755 3.14679 11.9136 2.6349 12.4758 2.27475C13.038 1.9146 13.6989 1.72237 14.375 1.72237C15.2816 1.72237 16.1511 2.06769 16.7922 2.68236C17.4333 3.29704 17.7935 4.13072 17.7935 5Z" fill="white"/>
<path d="M19.0201 4.35604C18.8726 3.39447 18.4056 2.50416 17.6883 1.81744C16.9709 1.13072 16.0417 0.684237 15.0386 0.544345C14.9486 0.533116 14.8571 0.54056 14.7704 0.566173C14.6836 0.591787 14.6037 0.634971 14.5358 0.692802C14.4435 0.769796 14.3761 0.870499 14.3415 0.983032C14.3069 1.09556 14.3066 1.21523 14.3407 1.32792C14.3747 1.44061 14.4416 1.54161 14.5336 1.61901C14.6255 1.69642 14.7387 1.747 14.8596 1.76478C15.5889 1.86585 16.2647 2.19019 16.7861 2.68946C17.3076 3.18873 17.6468 3.83619 17.7532 4.53535C17.7721 4.65115 17.8251 4.75938 17.9059 4.84728C17.9868 4.93519 18.0921 4.99911 18.2096 5.03153C18.3271 5.06394 18.4518 5.06349 18.569 5.03024C18.6862 4.99699 18.7911 4.93231 18.8713 4.84383C18.9316 4.77779 18.9761 4.69993 19.0018 4.61569C19.0275 4.53144 19.0338 4.44283 19.0201 4.35604Z" fill="white"/>
</g>
<defs>
<clipPath id="clip0_837_2391">
<rect width="58" height="10" fill="white"/>
</clipPath>
</defs>
</svg>
