<svg width="93" height="46" viewBox="0 0 93 46" fill="none" xmlns="http://www.w3.org/2000/svg">
<g clip-path="url(#clip0_1185_235)">
<path d="M82.2663 13.1306V24.3768H78.0961V16.4879H74.0809V24.3768H69.9107V13.1299H82.2663V13.1306Z" fill="#333333"/>
<path fill-rule="evenodd" clip-rule="evenodd" d="M61.3464 24.7784C65.0794 24.7784 67.8516 22.5743 67.8516 19.2328C67.8516 15.9986 65.8063 13.8988 62.3881 13.8988C60.8105 13.8988 59.5089 14.4335 58.5284 15.3562C58.7625 13.4491 60.4372 12.0569 62.281 12.0569C62.7065 12.0569 65.9102 12.0503 65.9102 12.0503L67.7218 8.71191C67.7218 8.71191 63.6997 8.80008 61.83 8.80008C57.5579 8.87176 54.6724 12.6111 54.6724 17.1528C54.6724 22.4439 57.4867 24.7784 61.3464 24.7784ZM61.369 16.8558C62.7551 16.8558 63.716 17.7328 63.716 19.2324C63.716 20.5821 62.8622 21.6942 61.369 21.6972C59.9408 21.6972 58.9798 20.6668 58.9798 19.2554C58.9798 17.7554 59.9408 16.8558 61.369 16.8558Z" fill="#333333"/>
<path d="M51.278 20.6114C51.278 20.6114 50.2932 21.158 48.8223 21.2615C47.1313 21.3098 45.6247 20.2813 45.6247 18.454C45.6247 16.6715 46.9542 15.65 48.7797 15.65C49.8991 15.65 51.3799 16.3971 51.3799 16.3971C51.3799 16.3971 52.4634 14.4823 53.0247 13.5248C51.9969 12.7746 50.628 12.3633 49.0357 12.3633C45.0172 12.3633 41.9047 14.8864 41.9047 18.4314C41.9047 22.0217 44.8301 24.4861 49.0357 24.4117C50.2112 24.3696 51.8329 23.972 52.8213 23.3606L51.278 20.6114Z" fill="#333333"/>
<path d="M0 10.0127L5.7847 19.9697V26.0432L0.00676713 35.9806L0 10.0127Z" fill="#5B57A2"/>
<path d="M22.2109 16.346L27.6314 13.1467L38.7247 13.1367L22.2109 22.8787V16.346Z" fill="#D90751"/>
<path d="M22.1802 9.95393L22.2109 23.1367L16.4127 19.7059V0L22.1802 9.95393Z" fill="#FAB718"/>
<path d="M38.7247 13.1371L27.631 13.1471L22.1802 9.95393L16.4127 0L38.7247 13.1371Z" fill="#ED6F26"/>
<path d="M22.2109 36.0359V29.6401L16.4127 26.2744L16.4158 45.9998L22.2109 36.0359Z" fill="#63B22F"/>
<path d="M27.6179 32.8657L5.78431 19.9697L0 10.0127L38.7012 32.8527L27.6179 32.8657Z" fill="#1487C9"/>
<path d="M16.4163 45.9996L22.2105 36.0357L27.6175 32.8656L38.7008 32.8525L16.4163 45.9996Z" fill="#017F36"/>
<path d="M0.00683594 35.9801L16.4601 26.2741L10.9286 23.0059L5.78477 26.0426L0.00683594 35.9801Z" fill="#984995"/>
<path d="M45.6259 31.9452C45.4985 32.1016 45.3309 32.2196 45.1299 32.2993C44.9237 32.3802 44.703 32.4214 44.4803 32.4205C44.2588 32.4234 44.0386 32.3878 43.8302 32.3154C43.6431 32.25 43.472 32.1479 43.3279 32.0157C43.1855 31.8832 43.0737 31.7233 42.9999 31.5465C42.9199 31.3528 42.88 31.1458 42.8824 30.9374C42.8824 30.7304 42.9194 30.5387 42.9963 30.357C43.0699 30.1749 43.177 30.0189 43.3111 29.8878C43.4453 29.754 43.6061 29.6521 43.7868 29.5723C43.9711 29.4957 44.1722 29.4543 44.3931 29.4543C44.6311 29.4543 44.8521 29.483 45.0531 29.5401C45.2541 29.5976 45.4249 29.6935 45.5654 29.8276L45.321 30.2263C45.2028 30.1231 45.0635 30.0448 44.9122 29.9963C44.7683 29.9517 44.6179 29.9291 44.4667 29.9296C44.333 29.9296 44.2056 29.9549 44.0818 30.0028C43.9598 30.0501 43.8483 30.1195 43.7534 30.2071C43.6564 30.2973 43.5799 30.4059 43.5289 30.5261C43.472 30.6503 43.4453 30.7875 43.4453 30.9404C43.4453 31.0968 43.4752 31.2371 43.5321 31.3583C43.5894 31.4829 43.6662 31.5883 43.7634 31.6772C43.8605 31.7669 43.9743 31.8336 44.1049 31.8785C44.2359 31.9264 44.3732 31.9486 44.5205 31.9486C44.7012 31.9486 44.8656 31.9133 45.0061 31.8463C45.1454 31.7815 45.2705 31.6917 45.3747 31.5818L45.6259 31.9452ZM46.3158 32.3534V29.5148H46.8452V31.6297L48.5668 29.5148H49.0962V32.3538H48.5668V30.2389L46.8452 32.3538L46.3158 32.3534ZM52.6032 31.9452C52.473 32.1029 52.3021 32.225 52.1076 32.2993C51.9012 32.3802 51.6804 32.4213 51.4576 32.4205C51.2362 32.4233 51.0162 32.3878 50.8079 32.3154C50.6207 32.25 50.4495 32.1479 50.3052 32.0157C50.1628 31.8832 50.0511 31.7233 49.9772 31.5465C49.8972 31.3528 49.8573 31.1458 49.8597 30.9374C49.8597 30.7304 49.8968 30.5387 49.9736 30.357C50.0476 30.1749 50.1547 30.0189 50.2885 29.8878C50.4226 29.754 50.5834 29.6521 50.7641 29.5723C50.955 29.4914 51.1618 29.4511 51.3704 29.4543C51.6084 29.4543 51.8294 29.483 52.0304 29.5401C52.2314 29.5976 52.4022 29.6935 52.5431 29.8276L52.2983 30.2263C52.1803 30.1231 52.0412 30.0447 51.8899 29.9963C51.746 29.9517 51.5956 29.9292 51.4444 29.9296C51.1784 29.9304 50.9228 30.0298 50.7307 30.2071C50.6345 30.298 50.5582 30.4064 50.5062 30.5261C50.4493 30.6503 50.4226 30.7875 50.4226 30.9404C50.4226 31.0968 50.4529 31.2371 50.5098 31.3583C50.5667 31.4829 50.6435 31.5883 50.7407 31.6772C50.8378 31.7669 50.952 31.8336 51.0826 31.8785C51.2132 31.9229 51.3505 31.9486 51.4978 31.9486C51.6789 31.9486 51.8397 31.9133 51.9834 31.8463C52.1227 31.7815 52.2478 31.6917 52.352 31.5818L52.6032 31.9452ZM52.8747 29.5148H55.5911V30.0189H54.4992V32.3534H53.9698V30.0189H52.8779V29.5148H52.8747Z" fill="#333333"/>
<path fill-rule="evenodd" clip-rule="evenodd" d="M58.0635 32.325C58.2645 32.2645 58.4353 32.1717 58.5826 32.0444L58.4218 31.6488C58.3246 31.732 58.1941 31.8022 58.0368 31.8597C57.8792 31.9172 57.7017 31.9455 57.5074 31.9455C57.216 31.9455 56.9748 31.8723 56.7837 31.7224C56.593 31.5722 56.4892 31.3621 56.4657 31.0938H58.7569C58.7804 30.9949 58.7904 30.8833 58.7904 30.7526C58.7904 30.5579 58.7534 30.3827 58.6797 30.2232C58.6112 30.0684 58.511 29.9284 58.3851 29.8115C58.2576 29.6958 58.1072 29.6058 57.9429 29.547C57.7709 29.4828 57.588 29.4503 57.4035 29.4512C57.1555 29.4512 56.9378 29.4926 56.7471 29.5693C56.5668 29.6423 56.4038 29.7497 56.2678 29.8851C56.1358 30.0198 56.0344 30.1794 55.9701 30.3539C55.8993 30.5398 55.8641 30.7364 55.8662 30.9343C55.8662 31.1578 55.9064 31.3617 55.98 31.5438C56.0517 31.7202 56.1613 31.8799 56.3017 32.0126C56.439 32.1429 56.6062 32.2422 56.804 32.3124C57.0158 32.3847 57.2393 32.4203 57.464 32.4174C57.6675 32.4162 57.8697 32.3848 58.0635 32.325ZM56.7236 30.14C56.8876 29.9967 57.1054 29.9265 57.38 29.9265C57.638 29.9265 57.8458 29.9936 57.9966 30.1278C58.1475 30.2616 58.2275 30.4467 58.241 30.6824H56.4322C56.4579 30.4737 56.5614 30.2807 56.7236 30.14Z" fill="#333333"/>
<path d="M59.5104 29.5156H59.9928L61.1385 30.9224L62.2236 29.5156H62.6925V32.3546H62.1635V30.2846L61.1317 31.6017H61.1114L60.0398 30.2842V32.3542H59.5104V29.5156Z" fill="#333333"/>
<path fill-rule="evenodd" clip-rule="evenodd" d="M64.1328 29.5252C63.9721 29.5656 63.8186 29.6289 63.6774 29.713L63.8179 30.1155C63.9385 30.058 64.0591 30.0101 64.1797 29.9687C64.3004 29.9269 64.4544 29.9078 64.6387 29.9078C64.786 29.9078 64.9034 29.9304 64.9938 29.9748C65.0842 30.0162 65.151 30.0803 65.198 30.1569C65.245 30.2336 65.2752 30.329 65.2919 30.4406C65.3087 30.5521 65.3154 30.6733 65.3154 30.8044C65.2071 30.7317 65.0836 30.6826 64.9536 30.6606C64.8278 30.6365 64.7 30.6237 64.5718 30.6223C64.4142 30.6223 64.2669 30.6449 64.126 30.6829C63.9855 30.7212 63.8649 30.7787 63.7677 30.8554C63.6686 30.9319 63.5885 31.0288 63.5333 31.139C63.4743 31.2597 63.4445 31.3917 63.4461 31.525C63.4461 31.8026 63.5301 32.0195 63.6973 32.1729C63.8649 32.3258 64.0858 32.4021 64.3605 32.4021C64.6085 32.4021 64.8063 32.3607 64.9568 32.2779C65.1076 32.1947 65.2283 32.0993 65.3154 31.9908V32.3576H65.811V30.6162C65.811 30.2459 65.7274 29.9591 65.5567 29.7579C65.3891 29.557 65.0909 29.455 64.669 29.455C64.4811 29.455 64.3035 29.4803 64.1328 29.5252ZM65.0177 31.8252C64.8971 31.908 64.7394 31.9459 64.5452 31.9459C64.3744 31.9459 64.2402 31.9045 64.1467 31.8248C64.0528 31.742 64.0058 31.6335 64.0058 31.4993C64.0058 31.42 64.0225 31.3529 64.0595 31.2924C64.0965 31.2318 64.1467 31.1839 64.2036 31.1455C64.2659 31.1054 64.335 31.0762 64.4078 31.0593C64.4851 31.0401 64.5619 31.0305 64.6423 31.0305C64.9038 31.0305 65.1279 31.0911 65.3122 31.2188V31.5791C65.2254 31.6728 65.1264 31.7558 65.0177 31.8252ZM70.4843 28.517C70.5914 28.4695 70.6917 28.3898 70.7857 28.2717L70.4975 27.873C70.4238 27.9689 70.3402 28.0356 70.2463 28.0708C70.1467 28.1083 70.0435 28.1361 69.9382 28.1536L69.8379 28.1709C69.7507 28.1855 69.6571 28.2016 69.5564 28.2177C69.3949 28.2464 69.2375 28.2935 69.0875 28.358C68.8495 28.4569 68.6588 28.5906 68.5147 28.7597C68.3706 28.9287 68.2567 29.12 68.1795 29.3309C68.1013 29.5444 68.0485 29.7659 68.0223 29.9909C67.9952 30.2209 67.9821 30.4406 67.9821 30.651C67.9821 30.9224 68.0187 31.1678 68.0923 31.3878C68.1664 31.6082 68.2699 31.793 68.4072 31.9429C68.5445 32.0962 68.7089 32.2112 68.9032 32.294C69.0975 32.3768 69.3152 32.4182 69.5596 32.4182C69.7841 32.4182 69.9919 32.3768 70.1794 32.3001C70.3602 32.2265 70.5241 32.1193 70.6619 31.9846C70.7956 31.8535 70.9031 31.6971 70.9767 31.522C71.0536 31.3464 71.0906 31.1582 71.0906 30.9604C71.0906 30.7469 71.0571 30.5525 70.9935 30.38C70.9348 30.2156 70.8413 30.0647 70.7188 29.9369C70.5961 29.8113 70.4462 29.7131 70.2797 29.6494C70.0964 29.5799 69.9008 29.5452 69.7037 29.5474C69.5763 29.5474 69.4525 29.5635 69.3319 29.5953C69.2146 29.6272 69.102 29.6733 68.9967 29.7326C68.8946 29.7889 68.8011 29.8586 68.7189 29.9396C68.6385 30.0197 68.5716 30.109 68.5246 30.211H68.5111C68.5215 30.0803 68.5382 29.9465 68.568 29.8092C68.5983 29.672 68.6417 29.5409 68.699 29.4167C68.7559 29.2925 68.8296 29.1806 68.9199 29.0786C69.0168 28.9757 69.1356 28.8941 69.2682 28.8394C69.4141 28.7725 69.5684 28.7243 69.7272 28.6961L69.8323 28.6777C69.937 28.6593 70.0369 28.6416 70.1324 28.6225C70.2598 28.5972 70.3768 28.5646 70.4843 28.517ZM68.6218 31.2444C68.57 31.0834 68.5451 30.9154 68.5481 30.7469C68.5706 30.6501 68.6115 30.5582 68.6687 30.4759C68.7257 30.3896 68.7993 30.3133 68.8865 30.2459C69.0832 30.0974 69.3264 30.0177 69.5763 30.0197C69.888 30.0197 70.1225 30.1121 70.2865 30.2942C70.4509 30.4789 70.5313 30.7085 70.5313 30.9861C70.5313 31.1233 70.5042 31.2479 70.4577 31.3625C70.4124 31.4756 70.344 31.5787 70.2565 31.6658C70.1691 31.7529 70.0643 31.8223 69.9485 31.8696C69.8279 31.9206 69.6969 31.9463 69.5497 31.9463C69.4024 31.9463 69.2682 31.9176 69.1444 31.8601C69.0214 31.8037 68.9127 31.7221 68.826 31.6209C68.7352 31.5081 68.666 31.3806 68.6218 31.2444ZM75.1505 29.5156H74.621V32.3546H75.1505V29.5156ZM71.8541 29.5156H72.3835V30.3674H72.8727C73.1036 30.3674 73.2911 30.3961 73.442 30.4502C73.5928 30.5046 73.7134 30.5778 73.8038 30.6671C73.8942 30.7565 73.9579 30.8619 73.9949 30.9796C74.0315 31.0976 74.0518 31.2188 74.0518 31.3464C74.0518 31.474 74.0315 31.5956 73.9881 31.7167C73.9479 31.8378 73.8774 31.9429 73.7835 32.0387C73.69 32.1345 73.5626 32.2112 73.4018 32.2687C73.2409 32.3258 73.0467 32.3576 72.8122 32.3576H71.8509V29.5156H71.8541ZM72.3835 30.8423V31.8823H72.7688C73.0335 31.8823 73.221 31.8378 73.3281 31.7481C73.4356 31.6588 73.4889 31.5315 73.4889 31.3625C73.4889 31.19 73.432 31.0597 73.3249 30.97C73.2143 30.8807 73.03 30.8358 72.7756 30.8358H72.3835V30.8423Z" fill="#333333"/>
<path d="M78.6511 31.9452C78.5237 32.1016 78.3561 32.2196 78.1551 32.2994C77.9488 32.3802 77.7281 32.4213 77.5054 32.4205C77.2839 32.4234 77.0637 32.3878 76.8554 32.3155C76.6682 32.2501 76.4971 32.148 76.353 32.0157C76.2107 31.8831 76.0988 31.7233 76.0246 31.5465C75.9449 31.3527 75.9052 31.1458 75.9076 30.9374C75.9076 30.7304 75.9442 30.5387 76.0214 30.357C76.0951 30.1749 76.2021 30.0189 76.3363 29.8878C76.4704 29.754 76.6309 29.6521 76.812 29.5723C77.0029 29.4914 77.2097 29.4511 77.4182 29.4543C77.6559 29.4543 77.8772 29.483 78.0782 29.5401C78.2793 29.5976 78.45 29.6935 78.5905 29.8276L78.3461 30.2263C78.2279 30.1231 78.0887 30.0448 77.9373 29.9963C77.7934 29.9517 77.6431 29.9291 77.4919 29.9296C77.3581 29.9296 77.2307 29.9549 77.1066 30.0028C76.9847 30.0502 76.8733 30.1195 76.7785 30.2071C76.6822 30.2979 76.6059 30.4063 76.554 30.5261C76.4971 30.6503 76.4704 30.7875 76.4704 30.9404C76.4704 31.0968 76.5003 31.2371 76.5572 31.3583C76.6141 31.4829 76.6914 31.5883 76.7885 31.6772C76.8856 31.7669 76.9995 31.8336 77.13 31.8785C77.261 31.9229 77.3983 31.9486 77.5456 31.9486C77.7263 31.9486 77.8872 31.9133 78.0313 31.8463C78.1705 31.7815 78.2956 31.6917 78.3999 31.5818L78.6511 31.9452ZM78.9221 29.5148H81.6389V30.0189H80.5466V32.3534H80.0176V30.0189H78.9257V29.5148H78.9221Z" fill="#333333"/>
<path fill-rule="evenodd" clip-rule="evenodd" d="M82.7444 29.5154H82.215V33.617H82.7444V32.2232C82.8515 32.2903 82.9789 32.3382 83.1261 32.3701C83.2734 32.4019 83.4275 32.4176 83.5851 32.4176C83.8196 32.4176 84.0305 32.3762 84.2216 32.2999C84.4049 32.2244 84.571 32.115 84.7105 31.9779C84.8478 31.8403 84.9517 31.6808 85.0253 31.4926C85.099 31.3048 85.136 31.1035 85.136 30.89C85.136 30.6792 85.1025 30.4848 85.0389 30.3093C84.9789 30.1425 84.8856 29.9887 84.7642 29.8566C84.6451 29.7276 84.4973 29.6262 84.3319 29.5599C84.1511 29.485 83.9558 29.4481 83.7591 29.4514C83.5517 29.4514 83.3574 29.4897 83.1731 29.5664C82.9888 29.643 82.8447 29.735 82.7444 29.85V29.5154ZM83.113 30.0417C83.2639 29.965 83.4279 29.9267 83.6054 29.9267C83.7595 29.9267 83.8968 29.9489 84.021 29.9969C84.1416 30.0448 84.2419 30.1119 84.3259 30.2012C84.4095 30.2905 84.4732 30.3928 84.5134 30.5136C84.5568 30.6347 84.5771 30.7658 84.5771 30.9092C84.5771 31.0625 84.55 31.1994 84.5035 31.327C84.4595 31.448 84.3898 31.5589 84.2988 31.6525C84.2074 31.7449 84.0967 31.8177 83.974 31.866C83.8372 31.9211 83.69 31.9483 83.5417 31.9457C83.398 31.9457 83.2639 31.93 83.1365 31.8982C82.997 31.8616 82.8647 31.8034 82.7448 31.7257V30.3189C82.8383 30.2108 82.9625 30.1184 83.113 30.0417ZM89.1959 29.515H88.6664V32.354H89.1959V29.515ZM85.8963 29.515H86.4257V30.3668H86.9145C87.1458 30.3668 87.3333 30.3955 87.4842 30.4496C87.635 30.504 87.7557 30.5772 87.846 30.6665C87.9364 30.7559 88.0001 30.8613 88.0367 30.9789C88.0737 31.097 88.0936 31.2181 88.0936 31.3458C88.0936 31.4734 88.0737 31.595 88.0303 31.7161C87.9901 31.8372 87.9197 31.9423 87.8257 32.0381C87.7322 32.1339 87.6048 32.2106 87.444 32.2681C87.2832 32.3252 87.0889 32.357 86.8544 32.357H85.8931V29.515H85.8963ZM86.4293 30.8417V31.8817H86.8146C87.0789 31.8817 87.2668 31.8372 87.3739 31.7475C87.481 31.6582 87.5347 31.5309 87.5347 31.3619C87.5347 31.1894 87.4778 31.0591 87.3707 30.9694C87.2601 30.8801 87.0758 30.8352 86.8214 30.8352H86.4293V30.8417Z" fill="#333333"/>
<path d="M91.7351 30.8841L92.8672 32.3546H92.2175L91.343 31.2061L90.4553 32.3546H89.8391L90.9644 30.9094L89.906 29.5156H90.556L91.3633 30.5874L92.1837 29.5156H92.8003L91.7351 30.8841ZM45.2341 35.8632H43.6096V38.2299H43.0802V35.3913H45.7632V38.2299H45.2341V35.8632ZM48.7678 35.895H47.7229L47.689 36.3734C47.6524 36.7786 47.6022 37.104 47.5318 37.3524C47.4613 37.6016 47.3741 37.7929 47.2738 37.9267C47.1735 38.0608 47.0561 38.1532 46.9219 38.1981C46.7836 38.2464 46.6372 38.2701 46.49 38.2682L46.4498 37.7768C46.5068 37.7798 46.5736 37.7672 46.6473 37.7354C46.7213 37.7036 46.795 37.6334 46.865 37.5284C46.9355 37.4195 46.9992 37.2666 47.0561 37.0688C47.113 36.8679 47.15 36.6065 47.1699 36.2776L47.2237 35.394H49.2972V38.2329H48.7678V35.895Z" fill="#333333"/>
<path fill-rule="evenodd" clip-rule="evenodd" d="M50.7243 35.3973C50.5531 35.4418 50.3991 35.5054 50.2685 35.5851L50.4094 35.9872C50.53 35.9297 50.6506 35.8818 50.7708 35.8404C50.8915 35.799 51.0459 35.7799 51.2298 35.7799C51.3775 35.7799 51.4945 35.8021 51.5849 35.8466C51.6757 35.8883 51.7425 35.952 51.7895 36.0286C51.8361 36.1053 51.8663 36.2011 51.883 36.3123C51.8998 36.4242 51.9065 36.5454 51.9065 36.6761C51.7982 36.6035 51.6747 36.5546 51.5447 36.5327C51.4189 36.5086 51.2912 36.4958 51.1629 36.4944C51.0057 36.4944 50.858 36.5166 50.7175 36.555C50.5766 36.5933 50.456 36.6508 50.3589 36.7275C50.2597 36.804 50.1796 36.9009 50.1244 37.0111C50.0655 37.1318 50.0359 37.2638 50.0376 37.3971C50.0376 37.6743 50.1212 37.8916 50.2888 38.0446C50.456 38.1975 50.6773 38.2742 50.952 38.2742C51.2 38.2742 51.3974 38.2328 51.5483 38.1496C51.6987 38.0668 51.8194 37.971 51.9065 37.8625V38.2293H52.4025V36.4879C52.4025 36.118 52.3185 35.8308 52.1478 35.63C51.9802 35.4287 51.682 35.3271 51.2601 35.3271C51.079 35.3273 50.8988 35.3511 50.7243 35.3973ZM51.612 37.6965C51.4917 37.7797 51.3341 37.818 51.1399 37.818C50.9655 37.818 50.8349 37.7766 50.7414 37.6965C50.6474 37.6137 50.6005 37.5052 50.6005 37.3714C50.6005 37.2917 50.6172 37.2246 50.6542 37.1641C50.6908 37.1035 50.7414 37.0556 50.7983 37.0173C50.8552 36.9789 50.9253 36.9502 51.0025 36.931C51.0791 36.912 51.1579 36.9024 51.237 36.9026C51.4981 36.9026 51.7226 36.9632 51.9069 37.0905V37.4508C51.8199 37.5445 51.7208 37.6271 51.612 37.6965Z" fill="#333333"/>
<path d="M52.9212 35.3906H55.638V35.8943H54.5457V38.2292H54.0167V35.8947H52.9248V35.3906H52.9212Z" fill="#333333"/>
<path fill-rule="evenodd" clip-rule="evenodd" d="M58.1104 38.2006C58.3114 38.14 58.4822 38.0472 58.6295 37.92L58.4687 37.5244C58.3715 37.6075 58.241 37.6777 58.0833 37.7352C57.9261 37.7927 57.7486 37.8211 57.5543 37.8211C57.2629 37.8211 57.0217 37.7478 56.8306 37.598C56.6395 37.4481 56.536 37.2376 56.5126 36.9693H58.8038C58.8269 36.8708 58.8373 36.7588 58.8373 36.6281C58.8373 36.4338 58.8002 36.2582 58.7266 36.0988C58.658 35.9439 58.5577 35.804 58.4316 35.6874C58.3043 35.5715 58.154 35.4814 57.9898 35.4226C57.8178 35.3583 57.6348 35.3258 57.4504 35.3267C57.2024 35.3267 56.9847 35.3681 56.794 35.4448C56.6136 35.5176 56.4505 35.6251 56.3147 35.7607C56.1827 35.8954 56.0812 36.055 56.0166 36.2295C55.946 36.4153 55.9108 36.6119 55.9127 36.8098C55.9127 37.0333 55.9529 37.2372 56.0265 37.4193C56.1006 37.601 56.2108 37.7574 56.3482 37.8881C56.4855 38.0189 56.6531 38.1178 56.8509 38.1879C57.0626 38.2604 57.2859 38.2961 57.5105 38.2933C57.7084 38.2933 57.9094 38.2611 58.1104 38.2006ZM56.7673 36.0125C56.9313 35.8691 57.1491 35.799 57.4237 35.799C57.6853 35.799 57.8895 35.8691 58.0403 35.9999C58.1908 36.134 58.2712 36.3188 58.2847 36.5549H56.4759C56.5015 36.346 56.605 36.1533 56.7673 36.0125ZM59.0952 35.3907H59.7652L60.7866 36.7592L59.6947 38.2293H59.0451L60.1903 36.7588L59.0952 35.3907ZM60.9172 35.3907H61.4466V38.2293H60.9172V35.3907ZM63.339 38.2293L62.1735 36.7588L63.2622 35.3904H62.6054L61.5772 36.7588L62.6826 38.2293H63.339ZM65.7577 38.2006C65.9587 38.14 66.1294 38.0472 66.2767 37.92L66.1159 37.5244C66.0188 37.6075 65.8882 37.6777 65.731 37.7352C65.5734 37.7927 65.3958 37.8211 65.2016 37.8211C64.9102 37.8211 64.6689 37.7478 64.4779 37.598C64.2872 37.4481 64.1833 37.2376 64.1598 36.9693H66.4511C66.4746 36.8708 66.4845 36.7588 66.4845 36.6281C66.4845 36.4338 66.4479 36.2582 66.3739 36.0988C66.3053 35.944 66.2051 35.8042 66.0793 35.6874C65.9518 35.5715 65.8014 35.4814 65.637 35.4226C65.4651 35.3583 65.2821 35.3258 65.0977 35.3267C64.8501 35.3267 64.6323 35.3681 64.4412 35.4448C64.261 35.5177 64.0981 35.6252 63.9624 35.7607C63.8301 35.8952 63.7286 36.0549 63.6642 36.2295C63.5935 36.4153 63.5583 36.6119 63.5603 36.8098C63.5603 37.0333 63.6005 37.2372 63.6742 37.4193C63.7478 37.601 63.8585 37.7574 63.9958 37.8881C64.1331 38.0189 64.3003 38.1178 64.4982 38.1879C64.71 38.2604 64.9334 38.2961 65.1582 38.2933C65.3617 38.2919 65.5639 38.2606 65.7577 38.2006ZM64.4146 36.0125C64.579 35.8691 64.7967 35.799 65.0714 35.799C65.3293 35.799 65.5367 35.8691 65.6876 35.9999C65.8385 36.134 65.9189 36.3188 65.932 36.5549H64.1232C64.1487 36.346 64.2523 36.1533 64.4146 36.0125ZM68.6321 34.437C68.3204 34.437 68.1496 34.271 68.123 33.9395H67.6238C67.6238 34.0667 67.6473 34.1817 67.6907 34.2902C67.7345 34.3987 67.7981 34.4911 67.8817 34.5677C67.9653 34.6444 68.0728 34.705 68.1966 34.7525C68.3204 34.8004 68.4645 34.8226 68.6285 34.8226C68.7794 34.8226 68.9135 34.8004 69.0341 34.7525C69.1548 34.708 69.2551 34.6444 69.3422 34.5677C69.4258 34.4911 69.4931 34.3987 69.5397 34.2902C69.5867 34.1817 69.6101 34.0667 69.6101 33.9395H69.1146C69.0911 34.271 68.9267 34.437 68.6321 34.437ZM67.2014 35.3904V38.2293H67.7309L69.4525 36.1145V38.2293H69.9819V35.3904H69.4525L67.7309 37.5052V35.3904H67.2014Z" fill="#333333"/>
</g>
<defs>
<clipPath id="clip0_1185_235">
<rect width="93" height="46" fill="white"/>
</clipPath>
</defs>
</svg>
