<svg width="14" height="14" viewBox="0 0 14 14" fill="none" xmlns="http://www.w3.org/2000/svg">
<rect x="14" y="6.11959e-07" width="6" height="6" rx="2" transform="rotate(90 14 6.11959e-07)" fill="#333333"/>
<path d="M12 8C13.1046 8 14 8.89543 14 10L14 12C14 13.1046 13.1046 14 12 14L10 14C8.89543 14 8 13.1046 8 12L8 10C8 8.89543 8.89543 8 10 8L12 8Z" fill="#333333"/>
<path d="M4 5.24537e-07C5.10457 5.72819e-07 6 0.895431 6 2V4C6 5.10457 5.10457 6 4 6L2 6C0.895431 6 6.11959e-07 5.10457 6.11959e-07 4V2C6.11959e-07 0.895431 0.895431 3.88832e-07 2 4.37114e-07L4 5.24537e-07Z" fill="#333333"/>
<path d="M4 8C5.10457 8 6 8.89543 6 10V12C6 13.1046 5.10457 14 4 14L2 14C0.895431 14 6.11959e-07 13.1046 6.11959e-07 12V10C6.11959e-07 8.89543 0.895431 8 2 8L4 8Z" fill="#333333"/>
</svg>
