<svg width="17" height="19" viewBox="0 0 17 19" fill="none" xmlns="http://www.w3.org/2000/svg">
<path fill-rule="evenodd" clip-rule="evenodd" d="M7.6065 0.116251C7.96824 -0.0190928 8.36348 -0.0367373 8.73583 0.0658345L8.8935 0.116251L15.3102 2.5225C15.6355 2.6445 15.9195 2.85645 16.129 3.13364C16.3385 3.41084 16.465 3.74187 16.4936 4.08817L16.5 4.23942V9.1555C16.5 10.6409 16.0989 12.0987 15.3391 13.3751C14.5794 14.6515 13.4891 15.699 12.1834 16.4072L11.9396 16.5347L8.86508 18.0719C8.6958 18.1564 8.51089 18.2051 8.32193 18.2149C8.13297 18.2247 7.94402 18.1953 7.76692 18.1287L7.63492 18.0719L4.56042 16.5347C3.23181 15.8703 2.10721 14.8596 1.30534 13.6092C0.503463 12.3588 0.0540655 10.9151 0.00458344 9.4305L0 9.1555V4.23942C5.33046e-06 3.89212 0.0986577 3.55197 0.284473 3.25856C0.470287 2.96515 0.73562 2.73055 1.04958 2.58208L1.18983 2.5225L7.6065 0.116251ZM11.3969 6.01408L7.18208 10.2289L5.56142 8.60825C5.38941 8.43637 5.15617 8.33985 4.91301 8.33994C4.66985 8.34003 4.43667 8.4367 4.26479 8.60871C4.09291 8.78071 3.9964 9.01395 3.99648 9.25712C3.99657 9.50028 4.09325 9.73345 4.26525 9.90533L6.46892 12.109C6.56256 12.2027 6.67373 12.277 6.7961 12.3277C6.91847 12.3784 7.04963 12.4045 7.18208 12.4045C7.31454 12.4045 7.4457 12.3784 7.56807 12.3277C7.69043 12.277 7.80161 12.2027 7.89525 12.109L12.6931 7.31025C12.7806 7.22569 12.8505 7.12454 12.8985 7.01271C12.9466 6.90087 12.9718 6.78058 12.9729 6.65887C12.974 6.53715 12.9508 6.41645 12.9047 6.30379C12.8586 6.19114 12.7905 6.08879 12.7044 6.00272C12.6184 5.91665 12.516 5.84859 12.4034 5.8025C12.2907 5.75641 12.17 5.73321 12.0483 5.73427C11.9266 5.73533 11.8063 5.76062 11.6945 5.80866C11.5826 5.8567 11.4815 5.92653 11.3969 6.01408Z" fill="white"/>
</svg>
