<svg width="21" height="17" viewBox="0 0 21 17" fill="none" xmlns="http://www.w3.org/2000/svg">
<path fill-rule="evenodd" clip-rule="evenodd" d="M1.44364 7.31839C7.08077 4.9193 10.8397 3.33767 12.7206 2.5735C18.0907 0.391658 19.2065 0.0126486 19.9338 0.000133439C20.0938 -0.00261913 20.4514 0.0361057 20.6831 0.219742C20.8787 0.374801 20.9326 0.584264 20.9583 0.731277C20.9841 0.87829 21.0162 1.21319 20.9907 1.47487C20.6997 4.46165 19.4405 11.7098 18.7999 15.055C18.5288 16.4705 17.9951 16.9451 17.4784 16.9916C16.3554 17.0925 15.5027 16.2667 14.4151 15.5702C12.7132 14.4805 11.7517 13.8021 10.0997 12.7387C8.19056 11.5097 9.42819 10.8343 10.5162 9.73037C10.801 9.44148 15.7486 5.04547 15.8444 4.64668C15.8564 4.59681 15.8675 4.41089 15.7544 4.31273C15.6414 4.21456 15.4745 4.24813 15.3541 4.27483C15.1834 4.31267 12.4646 6.06807 7.19761 9.54101C6.42588 10.0587 5.72687 10.3109 5.10058 10.2977C4.41015 10.2831 3.08204 9.91632 2.09473 9.60282C0.883743 9.2183 -0.0787216 9.01501 0.00508745 8.36197C0.0487404 8.02183 0.528258 7.67397 1.44364 7.31839Z" fill="white"/>
</svg>
